<svg width="476" height="194" viewBox="0 0 476 194" fill="none" xmlns="http://www.w3.org/2000/svg">
<g clip-path="url(#clip0_125_50)">
<path d="M225.5 103.125L263 75L225.5 46.875V103.125ZM238 12.5C203.5 12.5 175.5 40.5 175.5 75C175.5 109.5 203.5 137.5 238 137.5C272.5 137.5 300.5 109.5 300.5 75C300.5 40.5 272.5 12.5 238 12.5ZM238 125C210.438 125 188 102.562 188 75C188 47.4375 210.438 25 238 25C265.562 25 288 47.4375 288 75C288 102.562 265.562 125 238 125Z" fill="white"/>
</g>
<path d="M15.8711 181.461H22.1641C22.0547 182.781 21.707 183.891 21.1211 184.789C20.5352 185.68 19.7578 186.391 18.7891 186.922C17.8203 187.445 16.707 187.816 15.4492 188.035C14.1992 188.262 12.8633 188.375 11.4414 188.375C9.95703 188.375 8.5625 188.25 7.25781 188C5.96094 187.758 4.82031 187.348 3.83594 186.77C2.85156 186.184 2.07812 185.395 1.51562 184.402C0.960938 183.41 0.683594 182.172 0.683594 180.688V179.539C0.683594 178.055 0.960938 176.82 1.51562 175.836C2.07812 174.844 2.85156 174.059 3.83594 173.48C4.82031 172.895 5.96094 172.477 7.25781 172.227C8.5625 171.977 9.95703 171.852 11.4414 171.852C12.8633 171.852 14.1992 171.965 15.4492 172.191C16.707 172.418 17.8203 172.797 18.7891 173.328C19.7578 173.852 20.5352 174.559 21.1211 175.449C21.707 176.34 22.0547 177.445 22.1641 178.766H15.8711C15.6836 178.258 15.375 177.863 14.9453 177.582C14.5156 177.301 14 177.109 13.3984 177.008C12.7969 176.906 12.1445 176.855 11.4414 176.855C10.5977 176.855 9.82422 176.934 9.12109 177.09C8.42578 177.246 7.87109 177.547 7.45703 177.992C7.04297 178.43 6.83594 179.074 6.83594 179.926V180.312C6.83594 181.156 7.04297 181.801 7.45703 182.246C7.87109 182.684 8.42578 182.984 9.12109 183.148C9.82422 183.305 10.5977 183.383 11.4414 183.383C12.1445 183.383 12.7969 183.332 13.3984 183.23C14 183.121 14.5156 182.93 14.9453 182.656C15.375 182.375 15.6836 181.977 15.8711 181.461ZM34.457 171.852C35.9414 171.852 37.332 171.977 38.6289 172.227C39.9336 172.469 41.0742 172.883 42.0508 173.469C43.0352 174.047 43.8047 174.832 44.3594 175.824C44.9219 176.816 45.2031 178.055 45.2031 179.539V180.688C45.2031 182.172 44.9219 183.41 44.3594 184.402C43.8047 185.387 43.0352 186.172 42.0508 186.758C41.0742 187.344 39.9336 187.758 38.6289 188C37.332 188.25 35.9414 188.375 34.457 188.375C32.9727 188.375 31.5781 188.25 30.2734 188C28.9688 187.758 27.8242 187.344 26.8398 186.758C25.8633 186.172 25.0938 185.387 24.5312 184.402C23.9766 183.41 23.6992 182.172 23.6992 180.688V179.539C23.6992 178.055 23.9766 176.816 24.5312 175.824C25.0938 174.832 25.8633 174.047 26.8398 173.469C27.8242 172.883 28.9688 172.469 30.2734 172.227C31.5781 171.977 32.9727 171.852 34.457 171.852ZM39.0625 180.301V179.914C39.0625 179.07 38.8555 178.43 38.4414 177.992C38.0273 177.547 37.4688 177.246 36.7656 177.09C36.0703 176.926 35.3008 176.844 34.457 176.844C33.6055 176.844 32.8281 176.926 32.125 177.09C31.4297 177.246 30.875 177.547 30.4609 177.992C30.0469 178.43 29.8398 179.07 29.8398 179.914V180.301C29.8398 181.152 30.0469 181.801 30.4609 182.246C30.875 182.684 31.4297 182.984 32.125 183.148C32.8281 183.305 33.6055 183.383 34.457 183.383C35.3008 183.383 36.0703 183.305 36.7656 183.148C37.4688 182.984 38.0273 182.684 38.4414 182.246C38.8555 181.801 39.0625 181.152 39.0625 180.301ZM68.5586 187.988H61.6445L53.1836 178.367V187.988H47.043V172.238H55.4922L62.4062 180.582V172.238H68.5586V187.988ZM78.2852 188.012H72.1445V172.262H91.3516V177.254H78.2852V179.176H89.8164V183.781H78.2852V188.012ZM99.2617 187.988H93.1211V172.238H99.2617V187.988ZM117.695 172.25C118.789 172.25 119.785 172.52 120.684 173.059C121.59 173.59 122.309 174.305 122.84 175.203C123.379 176.102 123.648 177.102 123.648 178.203C123.648 179.391 123.332 180.465 122.699 181.426C122.074 182.379 121.246 183.098 120.215 183.582L123.648 188H117.109L114.145 184.156H108.66V188H102.52V172.25H117.695ZM108.66 176.855V179.539H116.148C116.523 179.539 116.84 179.41 117.098 179.152C117.363 178.887 117.496 178.57 117.496 178.203C117.496 177.828 117.363 177.512 117.098 177.254C116.84 176.988 116.523 176.855 116.148 176.855H108.66ZM138.391 181.473L136.234 176.82L134.066 181.473H138.391ZM148.328 188.012H141.414L140.172 185.316H132.285L131.043 188.012H124.129L132.578 172.262H139.879L148.328 188.012ZM175.715 181.461H182.008C181.898 182.781 181.551 183.891 180.965 184.789C180.379 185.68 179.602 186.391 178.633 186.922C177.664 187.445 176.551 187.816 175.293 188.035C174.043 188.262 172.707 188.375 171.285 188.375C169.801 188.375 168.406 188.25 167.102 188C165.805 187.758 164.664 187.348 163.68 186.77C162.695 186.184 161.922 185.395 161.359 184.402C160.805 183.41 160.527 182.172 160.527 180.688V179.539C160.527 178.055 160.805 176.82 161.359 175.836C161.922 174.844 162.695 174.059 163.68 173.48C164.664 172.895 165.805 172.477 167.102 172.227C168.406 171.977 169.801 171.852 171.285 171.852C172.707 171.852 174.043 171.965 175.293 172.191C176.551 172.418 177.664 172.797 178.633 173.328C179.602 173.852 180.379 174.559 180.965 175.449C181.551 176.34 181.898 177.445 182.008 178.766H175.715C175.527 178.258 175.219 177.863 174.789 177.582C174.359 177.301 173.844 177.109 173.242 177.008C172.641 176.906 171.988 176.855 171.285 176.855C170.441 176.855 169.668 176.934 168.965 177.09C168.27 177.246 167.715 177.547 167.301 177.992C166.887 178.43 166.68 179.074 166.68 179.926V180.312C166.68 181.156 166.887 181.801 167.301 182.246C167.715 182.684 168.27 182.984 168.965 183.148C169.668 183.305 170.441 183.383 171.285 183.383C171.988 183.383 172.641 183.332 173.242 183.23C173.844 183.121 174.359 182.93 174.789 182.656C175.219 182.375 175.527 181.977 175.715 181.461ZM194.301 171.852C195.785 171.852 197.176 171.977 198.473 172.227C199.777 172.469 200.918 172.883 201.895 173.469C202.879 174.047 203.648 174.832 204.203 175.824C204.766 176.816 205.047 178.055 205.047 179.539V180.688C205.047 182.172 204.766 183.41 204.203 184.402C203.648 185.387 202.879 186.172 201.895 186.758C200.918 187.344 199.777 187.758 198.473 188C197.176 188.25 195.785 188.375 194.301 188.375C192.816 188.375 191.422 188.25 190.117 188C188.812 187.758 187.668 187.344 186.684 186.758C185.707 186.172 184.938 185.387 184.375 184.402C183.82 183.41 183.543 182.172 183.543 180.688V179.539C183.543 178.055 183.82 176.816 184.375 175.824C184.938 174.832 185.707 174.047 186.684 173.469C187.668 172.883 188.812 172.469 190.117 172.227C191.422 171.977 192.816 171.852 194.301 171.852ZM198.906 180.301V179.914C198.906 179.07 198.699 178.43 198.285 177.992C197.871 177.547 197.312 177.246 196.609 177.09C195.914 176.926 195.145 176.844 194.301 176.844C193.449 176.844 192.672 176.926 191.969 177.09C191.273 177.246 190.719 177.547 190.305 177.992C189.891 178.43 189.684 179.07 189.684 179.914V180.301C189.684 181.152 189.891 181.801 190.305 182.246C190.719 182.684 191.273 182.984 191.969 183.148C192.672 183.305 193.449 183.383 194.301 183.383C195.145 183.383 195.914 183.305 196.609 183.148C197.312 182.984 197.871 182.684 198.285 182.246C198.699 181.801 198.906 181.152 198.906 180.301ZM234.543 187.988H228.402V179.586L222.25 187.988H219.18L213.027 179.586V187.988H206.887V172.238H214.574L220.715 180.113L226.867 172.238H234.543V187.988ZM247.48 171.852C248.965 171.852 250.355 171.977 251.652 172.227C252.957 172.469 254.098 172.883 255.074 173.469C256.059 174.047 256.828 174.832 257.383 175.824C257.945 176.816 258.227 178.055 258.227 179.539V180.688C258.227 182.172 257.945 183.41 257.383 184.402C256.828 185.387 256.059 186.172 255.074 186.758C254.098 187.344 252.957 187.758 251.652 188C250.355 188.25 248.965 188.375 247.48 188.375C245.996 188.375 244.602 188.25 243.297 188C241.992 187.758 240.848 187.344 239.863 186.758C238.887 186.172 238.117 185.387 237.555 184.402C237 183.41 236.723 182.172 236.723 180.688V179.539C236.723 178.055 237 176.816 237.555 175.824C238.117 174.832 238.887 174.047 239.863 173.469C240.848 172.883 241.992 172.469 243.297 172.227C244.602 171.977 245.996 171.852 247.48 171.852ZM252.086 180.301V179.914C252.086 179.07 251.879 178.43 251.465 177.992C251.051 177.547 250.492 177.246 249.789 177.09C249.094 176.926 248.324 176.844 247.48 176.844C246.629 176.844 245.852 176.926 245.148 177.09C244.453 177.246 243.898 177.547 243.484 177.992C243.07 178.43 242.863 179.07 242.863 179.914V180.301C242.863 181.152 243.07 181.801 243.484 182.246C243.898 182.684 244.453 182.984 245.148 183.148C245.852 183.305 246.629 183.383 247.48 183.383C248.324 183.383 249.094 183.305 249.789 183.148C250.492 182.984 251.051 182.684 251.465 182.246C251.879 181.801 252.086 181.152 252.086 180.301ZM276.566 188.012H270.426V172.262H289.633V177.254H276.566V179.176H288.098V183.781H276.566V188.012ZM301.48 171.852C302.965 171.852 304.355 171.977 305.652 172.227C306.957 172.469 308.098 172.883 309.074 173.469C310.059 174.047 310.828 174.832 311.383 175.824C311.945 176.816 312.227 178.055 312.227 179.539V180.688C312.227 182.172 311.945 183.41 311.383 184.402C310.828 185.387 310.059 186.172 309.074 186.758C308.098 187.344 306.957 187.758 305.652 188C304.355 188.25 302.965 188.375 301.48 188.375C299.996 188.375 298.602 188.25 297.297 188C295.992 187.758 294.848 187.344 293.863 186.758C292.887 186.172 292.117 185.387 291.555 184.402C291 183.41 290.723 182.172 290.723 180.688V179.539C290.723 178.055 291 176.816 291.555 175.824C292.117 174.832 292.887 174.047 293.863 173.469C294.848 172.883 295.992 172.469 297.297 172.227C298.602 171.977 299.996 171.852 301.48 171.852ZM306.086 180.301V179.914C306.086 179.07 305.879 178.43 305.465 177.992C305.051 177.547 304.492 177.246 303.789 177.09C303.094 176.926 302.324 176.844 301.48 176.844C300.629 176.844 299.852 176.926 299.148 177.09C298.453 177.246 297.898 177.547 297.484 177.992C297.07 178.43 296.863 179.07 296.863 179.914V180.301C296.863 181.152 297.07 181.801 297.484 182.246C297.898 182.684 298.453 182.984 299.148 183.148C299.852 183.305 300.629 183.383 301.48 183.383C302.324 183.383 303.094 183.305 303.789 183.148C304.492 182.984 305.051 182.684 305.465 182.246C305.879 181.801 306.086 181.152 306.086 180.301ZM320.207 187.988H314.066V172.238H320.207V187.988ZM350.828 188.012H332.395V172.262H350.828V176.293H338.535V178.309H350.828V181.953H338.535V183.969H350.828V188.012ZM381.754 187.988H375.613V179.586L369.461 187.988H366.391L360.238 179.586V187.988H354.098V172.238H361.785L367.926 180.113L374.078 172.238H381.754V187.988ZM413.664 187.988H393.941V185.328C393.941 184.609 394.133 183.977 394.516 183.43C394.906 182.875 395.426 182.391 396.074 181.977C396.723 181.562 397.449 181.203 398.254 180.898C399.066 180.586 399.906 180.312 400.773 180.078C401.641 179.844 402.484 179.629 403.305 179.434C404.133 179.23 404.883 179.035 405.555 178.848C406.227 178.66 406.762 178.461 407.16 178.25C407.559 178.031 407.758 177.785 407.758 177.512C407.758 177.176 407.496 176.898 406.973 176.68C406.457 176.461 405.652 176.352 404.559 176.352C403.785 176.352 403.078 176.406 402.438 176.516C401.805 176.617 401.297 176.801 400.914 177.066C400.539 177.324 400.352 177.695 400.352 178.18H394.188C394.188 176.852 394.434 175.773 394.926 174.945C395.418 174.117 396.109 173.48 397 173.035C397.898 172.582 398.965 172.273 400.199 172.109C401.441 171.938 402.809 171.852 404.301 171.852C406.324 171.852 408.051 172.023 409.48 172.367C410.918 172.711 412.016 173.27 412.773 174.043C413.539 174.809 413.922 175.832 413.922 177.113C413.922 177.777 413.781 178.352 413.5 178.836C413.219 179.32 412.84 179.738 412.363 180.09C411.895 180.441 411.363 180.742 410.77 180.992C410.176 181.242 409.559 181.461 408.918 181.648C408.277 181.828 407.652 181.992 407.043 182.141C406.23 182.336 405.52 182.539 404.91 182.75C404.301 182.953 403.879 183.199 403.645 183.488H413.664V187.988ZM424.387 183.77C425.512 183.77 426.395 183.574 427.035 183.184C427.832 182.699 428.23 181.867 428.23 180.688V179.539C428.23 178.359 427.832 177.527 427.035 177.043C426.395 176.66 425.512 176.469 424.387 176.469C423.27 176.469 422.391 176.66 421.75 177.043C420.945 177.527 420.543 178.359 420.543 179.539V180.688C420.543 181.867 420.945 182.699 421.75 183.184C422.391 183.574 423.27 183.77 424.387 183.77ZM424.387 188.375C420.652 188.375 417.93 187.539 416.219 185.867C415.008 184.688 414.402 183.09 414.402 181.074V179.152C414.402 178.168 414.543 177.301 414.824 176.551C415.348 175.129 416.297 174.039 417.672 173.281C419.391 172.328 421.629 171.852 424.387 171.852C428.121 171.852 430.848 172.688 432.566 174.359C433.777 175.539 434.383 177.137 434.383 179.152V181.074C434.383 182.066 434.242 182.934 433.961 183.676C433.438 185.098 432.488 186.191 431.113 186.957C429.387 187.902 427.145 188.375 424.387 188.375ZM454.586 187.988H434.863V185.328C434.863 184.609 435.055 183.977 435.438 183.43C435.828 182.875 436.348 182.391 436.996 181.977C437.645 181.562 438.371 181.203 439.176 180.898C439.988 180.586 440.828 180.312 441.695 180.078C442.562 179.844 443.406 179.629 444.227 179.434C445.055 179.23 445.805 179.035 446.477 178.848C447.148 178.66 447.684 178.461 448.082 178.25C448.48 178.031 448.68 177.785 448.68 177.512C448.68 177.176 448.418 176.898 447.895 176.68C447.379 176.461 446.574 176.352 445.48 176.352C444.707 176.352 444 176.406 443.359 176.516C442.727 176.617 442.219 176.801 441.836 177.066C441.461 177.324 441.273 177.695 441.273 178.18H435.109C435.109 176.852 435.355 175.773 435.848 174.945C436.34 174.117 437.031 173.48 437.922 173.035C438.82 172.582 439.887 172.273 441.121 172.109C442.363 171.938 443.73 171.852 445.223 171.852C447.246 171.852 448.973 172.023 450.402 172.367C451.84 172.711 452.938 173.27 453.695 174.043C454.461 174.809 454.844 175.832 454.844 177.113C454.844 177.777 454.703 178.352 454.422 178.836C454.141 179.32 453.762 179.738 453.285 180.09C452.816 180.441 452.285 180.742 451.691 180.992C451.098 181.242 450.48 181.461 449.84 181.648C449.199 181.828 448.574 181.992 447.965 182.141C447.152 182.336 446.441 182.539 445.832 182.75C445.223 182.953 444.801 183.199 444.566 183.488H454.586V187.988ZM465.566 188.375C464.035 188.375 462.641 188.289 461.383 188.117C460.133 187.953 459.055 187.645 458.148 187.191C457.25 186.738 456.555 186.102 456.062 185.281C455.57 184.453 455.324 183.383 455.324 182.07H461.477C461.477 182.617 461.668 183.004 462.051 183.23C462.441 183.457 462.961 183.594 463.609 183.641C464.266 183.688 465 183.711 465.812 183.711C466.969 183.711 467.812 183.613 468.344 183.418C468.875 183.223 469.141 182.918 469.141 182.504C469.141 182.254 469.078 182.059 468.953 181.918C468.836 181.777 468.59 181.68 468.215 181.625C467.848 181.562 467.301 181.527 466.574 181.52C465.855 181.504 464.891 181.496 463.68 181.496V178.742C464.891 178.742 465.855 178.738 466.574 178.73C467.301 178.715 467.848 178.676 468.215 178.613C468.59 178.551 468.836 178.453 468.953 178.32C469.078 178.18 469.141 177.984 469.141 177.734C469.141 176.922 468.07 176.516 465.93 176.516C465.047 176.516 464.277 176.539 463.621 176.586C462.965 176.633 462.441 176.773 462.051 177.008C461.668 177.234 461.477 177.621 461.477 178.168H455.324C455.324 176.855 455.57 175.789 456.062 174.969C456.555 174.141 457.25 173.5 458.148 173.047C459.055 172.594 460.133 172.285 461.383 172.121C462.641 171.949 464.035 171.863 465.566 171.863C467.629 171.863 469.383 172.035 470.828 172.379C472.281 172.723 473.391 173.254 474.156 173.973C474.922 174.684 475.305 175.586 475.305 176.68C475.305 178.188 474.473 179.332 472.809 180.113C474.473 180.895 475.305 182.043 475.305 183.559C475.305 184.652 474.922 185.555 474.156 186.266C473.391 186.977 472.281 187.508 470.828 187.859C469.383 188.203 467.629 188.375 465.566 188.375Z" fill="white"/>
<defs>
<clipPath id="clip0_125_50">
<rect width="150" height="150" fill="white" transform="translate(163)"/>
</clipPath>
</defs>
</svg>
